<?xml version="1.0" encoding="UTF-8" standalone="no"?>
<!DOCTYPE svg PUBLIC "-//W3C//DTD SVG 1.1//EN" "http://www.w3.org/Graphics/SVG/1.1/DTD/svg11.dtd">
<svg width="100%" height="100%" viewBox="0 0 1500 500" version="1.1" xmlns="http://www.w3.org/2000/svg" xmlns:xlink="http://www.w3.org/1999/xlink" xml:space="preserve" xmlns:serif="http://www.serif.com/" style="fill-rule:evenodd;clip-rule:evenodd;stroke-linejoin:round;stroke-miterlimit:2;">
    <g transform="matrix(1,0,0,1,0,-600)">
        <g id="Artboard2" transform="matrix(1.12867,0,0,1.5528,14.6727,-266.46)">
            <rect x="-13" y="558" width="1329" height="322" style="fill:none;"/>
            <g transform="matrix(1.10331,0,0,0.801957,-77.8207,452.83)">
                <g>
                    <g transform="matrix(0.105626,0.515917,-0.515917,0.105626,332.516,-86.4105)">
                        <path d="M426.873,215.983C423.948,230.189 422.41,244.917 422.41,260C422.41,380.091 519.909,477.59 640,477.59C760.091,477.59 857.59,380.091 857.59,260C857.59,244.917 856.052,230.189 853.127,215.983C880.973,257.089 897.243,306.66 897.243,360C897.243,501.976 781.976,617.243 640,617.243C498.024,617.243 382.757,501.976 382.757,360C382.757,306.66 399.027,257.089 426.873,215.983Z" style="fill:rgb(255,129,22);"/>
                    </g>
                    <g transform="matrix(1.35951,0,0,1.30023,-267.607,0.390688)">
                        <g transform="matrix(191.246,0,0,199.965,428.022,278.612)">
                            <path d="M0.195,-0.7C0.21,-0.7 0.217,-0.693 0.217,-0.678L0.217,-0.279C0.217,-0.252 0.219,-0.23 0.224,-0.213C0.228,-0.195 0.235,-0.181 0.245,-0.171C0.255,-0.16 0.269,-0.153 0.286,-0.149C0.303,-0.144 0.324,-0.142 0.35,-0.142L0.755,-0.142C0.77,-0.142 0.777,-0.135 0.777,-0.12L0.777,-0.022C0.777,-0.007 0.77,0 0.755,0L0.344,0C0.293,0 0.25,-0.005 0.215,-0.014C0.18,-0.023 0.151,-0.039 0.129,-0.06C0.106,-0.081 0.09,-0.108 0.08,-0.142C0.069,-0.175 0.064,-0.216 0.064,-0.264L0.064,-0.678C0.064,-0.693 0.072,-0.7 0.087,-0.7L0.195,-0.7Z" style="fill:rgb(255,129,22);fill-rule:nonzero;"/>
                        </g>
                        <g transform="matrix(191.246,0,0,199.965,578.532,278.612)">
                            <path d="M0.195,-0.7C0.21,-0.7 0.217,-0.693 0.217,-0.678L0.217,-0.279C0.217,-0.252 0.219,-0.23 0.224,-0.213C0.228,-0.195 0.235,-0.181 0.245,-0.171C0.255,-0.16 0.269,-0.153 0.286,-0.149C0.303,-0.144 0.324,-0.142 0.35,-0.142L0.627,-0.142C0.653,-0.142 0.675,-0.144 0.692,-0.149C0.708,-0.153 0.722,-0.16 0.732,-0.171C0.742,-0.181 0.749,-0.195 0.753,-0.213C0.757,-0.23 0.759,-0.252 0.759,-0.279L0.759,-0.678C0.759,-0.693 0.766,-0.7 0.781,-0.7L0.89,-0.7C0.905,-0.7 0.912,-0.693 0.912,-0.678L0.912,-0.264C0.912,-0.216 0.907,-0.175 0.897,-0.142C0.887,-0.108 0.871,-0.081 0.849,-0.06C0.826,-0.039 0.797,-0.023 0.762,-0.014C0.726,-0.005 0.683,0 0.632,0L0.344,0C0.293,0 0.25,-0.005 0.215,-0.014C0.18,-0.023 0.151,-0.039 0.129,-0.06C0.106,-0.081 0.09,-0.108 0.08,-0.142C0.069,-0.175 0.064,-0.216 0.064,-0.264L0.064,-0.678C0.064,-0.693 0.072,-0.7 0.087,-0.7L0.195,-0.7Z" style="fill:rgb(255,129,22);fill-rule:nonzero;"/>
                        </g>
                        <g transform="matrix(191.246,0,0,199.965,757.73,278.612)">
                            <path d="M0.51,-0.7C0.535,-0.7 0.557,-0.695 0.574,-0.685C0.591,-0.674 0.608,-0.654 0.625,-0.624L0.956,-0.023C0.959,-0.016 0.96,-0.011 0.959,-0.007C0.957,-0.002 0.952,0 0.944,0L0.817,0C0.806,0 0.798,-0.004 0.794,-0.013L0.723,-0.142L0.253,-0.142L0.184,-0.013C0.179,-0.004 0.172,0 0.161,0L0.031,0C0.022,0 0.017,-0.002 0.016,-0.007C0.014,-0.011 0.015,-0.016 0.018,-0.023L0.346,-0.624C0.363,-0.654 0.379,-0.674 0.395,-0.685C0.411,-0.695 0.43,-0.7 0.451,-0.7L0.51,-0.7ZM0.316,-0.258L0.66,-0.258L0.501,-0.551C0.498,-0.556 0.495,-0.558 0.49,-0.558L0.484,-0.558C0.479,-0.558 0.476,-0.556 0.473,-0.551L0.316,-0.258Z" style="fill:rgb(255,129,22);fill-rule:nonzero;"/>
                        </g>
                        <g transform="matrix(191.246,0,0,199.965,944.195,278.612)">
                            <path d="M0.633,-0.7C0.71,-0.7 0.765,-0.683 0.798,-0.648C0.831,-0.613 0.848,-0.562 0.848,-0.494L0.848,-0.437C0.848,-0.38 0.836,-0.334 0.813,-0.301C0.79,-0.268 0.752,-0.246 0.699,-0.237L0.87,-0.025C0.873,-0.022 0.874,-0.017 0.873,-0.01C0.872,-0.003 0.866,0 0.857,0L0.728,0C0.719,0 0.713,-0.001 0.71,-0.003C0.707,-0.005 0.703,-0.008 0.7,-0.013L0.542,-0.221L0.219,-0.221L0.219,-0.022C0.219,-0.007 0.212,0 0.197,0L0.089,0C0.074,0 0.066,-0.007 0.066,-0.022L0.066,-0.67C0.066,-0.69 0.076,-0.7 0.096,-0.7L0.633,-0.7ZM0.219,-0.343L0.602,-0.343C0.636,-0.343 0.66,-0.35 0.674,-0.365C0.688,-0.38 0.695,-0.402 0.695,-0.432L0.695,-0.474C0.695,-0.504 0.688,-0.526 0.674,-0.541C0.66,-0.556 0.636,-0.563 0.602,-0.563L0.232,-0.563C0.223,-0.563 0.219,-0.559 0.219,-0.551L0.219,-0.343Z" style="fill:rgb(255,129,22);fill-rule:nonzero;"/>
                        </g>
                    </g>
                </g>
            </g>
            <g transform="matrix(1.17863,0,0,0.790268,-96.3105,400.979)">
                <g transform="matrix(59.0372,0,0,64,86.9983,587)">
                    <path d="M0.622,-0.237C0.619,-0.201 0.611,-0.167 0.597,-0.137C0.583,-0.107 0.565,-0.081 0.541,-0.059C0.516,-0.038 0.487,-0.021 0.453,-0.009C0.419,0.004 0.379,0.01 0.335,0.01C0.29,0.01 0.249,0.002 0.213,-0.014C0.176,-0.03 0.146,-0.052 0.12,-0.082C0.095,-0.112 0.076,-0.148 0.062,-0.19C0.049,-0.232 0.042,-0.279 0.042,-0.332L0.042,-0.378C0.042,-0.431 0.049,-0.478 0.063,-0.521C0.077,-0.563 0.097,-0.599 0.122,-0.628C0.148,-0.658 0.179,-0.681 0.215,-0.697C0.252,-0.713 0.292,-0.721 0.337,-0.721C0.382,-0.721 0.421,-0.714 0.455,-0.702C0.489,-0.689 0.518,-0.672 0.542,-0.65C0.565,-0.627 0.584,-0.601 0.597,-0.57C0.611,-0.539 0.619,-0.506 0.623,-0.47L0.476,-0.47C0.474,-0.491 0.471,-0.51 0.465,-0.526C0.459,-0.542 0.451,-0.556 0.44,-0.567C0.43,-0.578 0.416,-0.586 0.399,-0.592C0.382,-0.598 0.361,-0.601 0.337,-0.601C0.288,-0.601 0.251,-0.583 0.227,-0.547C0.203,-0.511 0.19,-0.455 0.19,-0.379L0.19,-0.332C0.19,-0.295 0.193,-0.263 0.198,-0.235C0.204,-0.207 0.212,-0.184 0.224,-0.166C0.235,-0.147 0.25,-0.133 0.269,-0.124C0.287,-0.115 0.309,-0.11 0.335,-0.11C0.359,-0.11 0.378,-0.112 0.395,-0.118C0.412,-0.123 0.426,-0.131 0.437,-0.141C0.448,-0.152 0.457,-0.165 0.463,-0.181C0.47,-0.197 0.473,-0.216 0.475,-0.237L0.622,-0.237Z" style="fill:rgb(90,90,90);fill-rule:nonzero;"/>
                </g>
                <g transform="matrix(59.0372,0,0,64,125.626,587)">
                    <path d="M0.255,-0.711L0.438,-0.195L0.619,-0.711L0.812,-0.711L0.812,0L0.665,0L0.665,-0.194L0.679,-0.53L0.487,0L0.387,0L0.195,-0.529L0.21,-0.194L0.21,0L0.063,0L0.063,-0.711L0.255,-0.711Z" style="fill:rgb(90,90,90);fill-rule:nonzero;"/>
                </g>
                <g transform="matrix(59.0372,0,0,64,177.341,587)">
                    <path d="M0.432,-0.187C0.432,-0.199 0.43,-0.21 0.427,-0.22C0.423,-0.23 0.416,-0.239 0.406,-0.248C0.396,-0.256 0.382,-0.264 0.364,-0.272C0.345,-0.281 0.322,-0.289 0.293,-0.298C0.261,-0.309 0.23,-0.32 0.201,-0.333C0.173,-0.347 0.147,-0.362 0.126,-0.38C0.104,-0.397 0.087,-0.418 0.074,-0.441C0.062,-0.464 0.056,-0.491 0.056,-0.522C0.056,-0.552 0.062,-0.579 0.075,-0.603C0.088,-0.628 0.106,-0.649 0.129,-0.666C0.152,-0.683 0.18,-0.697 0.212,-0.706C0.244,-0.716 0.279,-0.721 0.318,-0.721C0.357,-0.721 0.393,-0.715 0.425,-0.704C0.458,-0.693 0.485,-0.678 0.508,-0.659C0.531,-0.639 0.548,-0.616 0.561,-0.589C0.573,-0.562 0.579,-0.533 0.579,-0.501L0.433,-0.501C0.433,-0.516 0.43,-0.53 0.426,-0.542C0.421,-0.555 0.414,-0.566 0.404,-0.575C0.394,-0.584 0.382,-0.591 0.367,-0.596C0.353,-0.601 0.335,-0.604 0.315,-0.604C0.296,-0.604 0.28,-0.602 0.265,-0.598C0.251,-0.593 0.24,-0.588 0.23,-0.58C0.221,-0.573 0.214,-0.564 0.209,-0.554C0.205,-0.544 0.202,-0.533 0.202,-0.521C0.202,-0.498 0.214,-0.478 0.238,-0.463C0.262,-0.447 0.297,-0.432 0.343,-0.418C0.382,-0.406 0.416,-0.393 0.446,-0.378C0.475,-0.364 0.5,-0.347 0.519,-0.329C0.539,-0.31 0.554,-0.289 0.564,-0.266C0.574,-0.243 0.579,-0.217 0.579,-0.188C0.579,-0.156 0.573,-0.128 0.561,-0.104C0.549,-0.08 0.531,-0.059 0.509,-0.042C0.486,-0.025 0.459,-0.013 0.427,-0.004C0.396,0.005 0.36,0.01 0.321,0.01C0.298,0.01 0.274,0.008 0.251,0.004C0.228,0 0.205,-0.007 0.184,-0.015C0.163,-0.024 0.143,-0.034 0.125,-0.047C0.106,-0.06 0.09,-0.075 0.077,-0.092C0.063,-0.109 0.053,-0.129 0.045,-0.151C0.038,-0.173 0.034,-0.197 0.034,-0.224L0.181,-0.224C0.181,-0.202 0.184,-0.184 0.191,-0.169C0.198,-0.154 0.207,-0.142 0.219,-0.133C0.232,-0.123 0.246,-0.117 0.264,-0.112C0.281,-0.108 0.3,-0.106 0.321,-0.106C0.34,-0.106 0.357,-0.108 0.371,-0.112C0.385,-0.116 0.396,-0.122 0.405,-0.129C0.414,-0.136 0.421,-0.145 0.426,-0.155C0.43,-0.164 0.432,-0.175 0.432,-0.187Z" style="fill:rgb(90,90,90);fill-rule:nonzero;"/>
                </g>
                <g transform="matrix(59.0372,0,0,64,228.336,587)">
                    <path d="M0.093,0L0.093,-0.425L0.014,-0.425L0.014,-0.528L0.093,-0.528L0.093,-0.574C0.093,-0.604 0.097,-0.631 0.106,-0.654C0.115,-0.677 0.128,-0.696 0.145,-0.712C0.162,-0.728 0.182,-0.74 0.206,-0.748C0.23,-0.756 0.257,-0.76 0.287,-0.76C0.299,-0.76 0.312,-0.759 0.323,-0.757C0.335,-0.755 0.347,-0.753 0.358,-0.75L0.357,-0.641C0.345,-0.644 0.331,-0.646 0.314,-0.646C0.289,-0.646 0.269,-0.639 0.255,-0.627C0.241,-0.615 0.234,-0.597 0.234,-0.574L0.234,-0.528L0.339,-0.528L0.339,-0.425L0.234,-0.425L0.234,0L0.093,0Z" style="fill:rgb(90,90,90);fill-rule:nonzero;"/>
                </g>
                <g transform="matrix(59.0372,0,0,64,249.495,587)">
                    <path d="M0.032,-0.269C0.032,-0.307 0.038,-0.343 0.049,-0.376C0.06,-0.409 0.076,-0.437 0.097,-0.461C0.118,-0.485 0.144,-0.504 0.176,-0.518C0.207,-0.531 0.242,-0.538 0.282,-0.538C0.322,-0.538 0.357,-0.531 0.389,-0.518C0.42,-0.504 0.446,-0.485 0.468,-0.461C0.489,-0.437 0.505,-0.409 0.516,-0.376C0.527,-0.343 0.533,-0.307 0.533,-0.269L0.533,-0.259C0.533,-0.22 0.527,-0.184 0.516,-0.152C0.505,-0.119 0.489,-0.091 0.468,-0.067C0.446,-0.043 0.42,-0.024 0.389,-0.01C0.358,0.003 0.323,0.01 0.283,0.01C0.243,0.01 0.207,0.003 0.176,-0.01C0.145,-0.024 0.119,-0.043 0.097,-0.067C0.076,-0.091 0.06,-0.119 0.049,-0.152C0.038,-0.184 0.032,-0.22 0.032,-0.259L0.032,-0.269ZM0.173,-0.259C0.173,-0.237 0.175,-0.217 0.179,-0.198C0.183,-0.179 0.189,-0.163 0.198,-0.149C0.207,-0.135 0.218,-0.124 0.232,-0.116C0.246,-0.108 0.263,-0.104 0.283,-0.104C0.302,-0.104 0.319,-0.108 0.333,-0.116C0.347,-0.124 0.358,-0.135 0.367,-0.149C0.375,-0.163 0.382,-0.179 0.386,-0.198C0.39,-0.217 0.392,-0.237 0.392,-0.259L0.392,-0.269C0.392,-0.29 0.39,-0.31 0.386,-0.328C0.382,-0.347 0.375,-0.364 0.367,-0.378C0.358,-0.392 0.347,-0.403 0.333,-0.411C0.319,-0.42 0.302,-0.424 0.282,-0.424C0.262,-0.424 0.246,-0.42 0.232,-0.411C0.218,-0.403 0.207,-0.392 0.198,-0.378C0.189,-0.364 0.183,-0.347 0.179,-0.328C0.175,-0.31 0.173,-0.29 0.173,-0.269L0.173,-0.259Z" style="fill:rgb(90,90,90);fill-rule:nonzero;"/>
                </g>
                <g transform="matrix(59.0372,0,0,64,282.876,587)">
                    <path d="M0.351,-0.396C0.344,-0.397 0.336,-0.398 0.326,-0.399C0.316,-0.399 0.308,-0.4 0.3,-0.4C0.273,-0.4 0.25,-0.395 0.233,-0.386C0.216,-0.377 0.203,-0.363 0.195,-0.346L0.195,0L0.054,0L0.054,-0.528L0.188,-0.528L0.191,-0.465C0.205,-0.488 0.221,-0.506 0.241,-0.519C0.26,-0.532 0.283,-0.538 0.309,-0.538C0.317,-0.538 0.324,-0.537 0.333,-0.536C0.341,-0.535 0.348,-0.533 0.353,-0.532L0.351,-0.396Z" style="fill:rgb(90,90,90);fill-rule:nonzero;"/>
                </g>
                <g transform="matrix(59.0372,0,0,64,319.111,587)">
                    <path d="M0.327,-0.26L0.21,-0.26L0.21,0L0.063,0L0.063,-0.711L0.328,-0.711C0.369,-0.711 0.405,-0.706 0.438,-0.697C0.471,-0.688 0.498,-0.674 0.521,-0.656C0.543,-0.638 0.56,-0.616 0.572,-0.589C0.584,-0.562 0.59,-0.531 0.59,-0.496C0.59,-0.47 0.587,-0.447 0.582,-0.426C0.576,-0.405 0.567,-0.387 0.556,-0.371C0.545,-0.355 0.532,-0.341 0.516,-0.329C0.5,-0.317 0.483,-0.306 0.463,-0.297L0.617,-0.007L0.617,0L0.46,0L0.327,-0.26ZM0.21,-0.379L0.328,-0.379C0.347,-0.379 0.364,-0.381 0.379,-0.386C0.393,-0.392 0.405,-0.399 0.415,-0.408C0.424,-0.417 0.432,-0.428 0.437,-0.441C0.441,-0.454 0.444,-0.468 0.444,-0.484C0.444,-0.518 0.434,-0.544 0.415,-0.563C0.396,-0.583 0.367,-0.592 0.328,-0.592L0.21,-0.592L0.21,-0.379Z" style="fill:rgb(90,90,90);fill-rule:nonzero;"/>
                </g>
                <g transform="matrix(59.0372,0,0,64,356.788,587)">
                    <path d="M0.297,0.01C0.256,0.01 0.22,0.003 0.187,-0.01C0.155,-0.024 0.127,-0.042 0.105,-0.065C0.082,-0.088 0.065,-0.115 0.053,-0.146C0.041,-0.177 0.035,-0.211 0.035,-0.246L0.035,-0.265C0.035,-0.305 0.041,-0.342 0.052,-0.375C0.064,-0.409 0.08,-0.437 0.102,-0.461C0.123,-0.486 0.149,-0.504 0.179,-0.518C0.21,-0.531 0.244,-0.538 0.282,-0.538C0.32,-0.538 0.353,-0.532 0.382,-0.519C0.411,-0.507 0.436,-0.489 0.455,-0.467C0.475,-0.444 0.49,-0.417 0.5,-0.385C0.51,-0.353 0.515,-0.317 0.515,-0.278L0.515,-0.218L0.178,-0.218C0.181,-0.201 0.185,-0.185 0.192,-0.171C0.199,-0.157 0.208,-0.145 0.219,-0.135C0.23,-0.126 0.243,-0.118 0.257,-0.112C0.272,-0.107 0.288,-0.104 0.307,-0.104C0.332,-0.104 0.356,-0.109 0.378,-0.118C0.4,-0.128 0.418,-0.143 0.434,-0.163L0.503,-0.085C0.495,-0.073 0.484,-0.062 0.472,-0.05C0.459,-0.039 0.444,-0.029 0.427,-0.02C0.41,-0.011 0.39,-0.004 0.368,0.002C0.347,0.007 0.323,0.01 0.297,0.01ZM0.281,-0.424C0.266,-0.424 0.253,-0.421 0.241,-0.416C0.229,-0.41 0.219,-0.403 0.211,-0.393C0.203,-0.384 0.196,-0.372 0.191,-0.359C0.186,-0.346 0.182,-0.331 0.18,-0.314L0.376,-0.314L0.376,-0.326C0.376,-0.34 0.374,-0.353 0.37,-0.365C0.366,-0.377 0.36,-0.387 0.353,-0.396C0.345,-0.405 0.335,-0.412 0.323,-0.417C0.312,-0.421 0.298,-0.424 0.281,-0.424Z" style="fill:rgb(90,90,90);fill-rule:nonzero;"/>
                </g>
                <g transform="matrix(59.0372,0,0,64,388.699,587)">
                    <path d="M0.36,0C0.354,-0.013 0.349,-0.028 0.346,-0.047C0.332,-0.031 0.314,-0.018 0.292,-0.007C0.271,0.004 0.244,0.01 0.213,0.01C0.188,0.01 0.164,0.006 0.142,-0.002C0.12,-0.01 0.101,-0.021 0.085,-0.035C0.069,-0.049 0.056,-0.065 0.047,-0.085C0.038,-0.104 0.033,-0.125 0.033,-0.148C0.033,-0.176 0.038,-0.201 0.049,-0.222C0.059,-0.244 0.074,-0.262 0.095,-0.277C0.115,-0.292 0.141,-0.303 0.171,-0.311C0.202,-0.319 0.237,-0.323 0.277,-0.323L0.34,-0.323L0.34,-0.353C0.34,-0.377 0.334,-0.397 0.322,-0.412C0.309,-0.426 0.289,-0.434 0.262,-0.434C0.238,-0.434 0.22,-0.428 0.206,-0.417C0.193,-0.405 0.186,-0.389 0.186,-0.37L0.045,-0.37C0.045,-0.392 0.05,-0.414 0.061,-0.435C0.071,-0.455 0.086,-0.473 0.106,-0.488C0.125,-0.504 0.149,-0.516 0.177,-0.525C0.204,-0.534 0.235,-0.538 0.27,-0.538C0.3,-0.538 0.328,-0.534 0.354,-0.526C0.381,-0.519 0.403,-0.507 0.422,-0.491C0.441,-0.476 0.455,-0.457 0.466,-0.433C0.477,-0.41 0.482,-0.383 0.482,-0.352L0.482,-0.128C0.482,-0.113 0.482,-0.1 0.483,-0.088C0.484,-0.076 0.486,-0.066 0.487,-0.056C0.489,-0.046 0.491,-0.038 0.494,-0.03C0.496,-0.022 0.499,-0.015 0.503,-0.008L0.503,0L0.36,0ZM0.244,-0.098C0.256,-0.098 0.267,-0.1 0.277,-0.103C0.287,-0.105 0.297,-0.109 0.305,-0.114C0.313,-0.119 0.32,-0.124 0.326,-0.13C0.332,-0.137 0.337,-0.143 0.34,-0.149L0.34,-0.24L0.282,-0.24C0.264,-0.24 0.248,-0.238 0.234,-0.234C0.22,-0.23 0.209,-0.224 0.2,-0.217C0.191,-0.21 0.185,-0.201 0.181,-0.191C0.176,-0.181 0.174,-0.17 0.174,-0.159C0.174,-0.141 0.181,-0.127 0.193,-0.115C0.205,-0.104 0.222,-0.098 0.244,-0.098Z" style="fill:rgb(90,90,90);fill-rule:nonzero;"/>
                </g>
                <g transform="matrix(59.0372,0,0,64,420.351,587)">
                    <path d="M0.274,-0.104C0.287,-0.104 0.299,-0.106 0.31,-0.11C0.32,-0.113 0.33,-0.119 0.337,-0.125C0.345,-0.132 0.351,-0.141 0.356,-0.15C0.36,-0.16 0.362,-0.171 0.363,-0.183L0.495,-0.183C0.495,-0.155 0.489,-0.129 0.478,-0.105C0.466,-0.082 0.451,-0.061 0.431,-0.044C0.412,-0.027 0.389,-0.014 0.362,-0.004C0.336,0.005 0.307,0.01 0.276,0.01C0.235,0.01 0.2,0.003 0.169,-0.011C0.138,-0.025 0.113,-0.044 0.093,-0.068C0.073,-0.092 0.057,-0.12 0.047,-0.152C0.037,-0.184 0.032,-0.219 0.032,-0.257L0.032,-0.271C0.032,-0.308 0.037,-0.343 0.047,-0.375C0.057,-0.408 0.073,-0.436 0.093,-0.46C0.113,-0.485 0.138,-0.503 0.169,-0.517C0.199,-0.531 0.235,-0.538 0.275,-0.538C0.308,-0.538 0.338,-0.533 0.365,-0.524C0.391,-0.514 0.414,-0.5 0.434,-0.482C0.453,-0.465 0.468,-0.443 0.479,-0.417C0.489,-0.392 0.495,-0.363 0.495,-0.332L0.363,-0.332C0.362,-0.344 0.36,-0.356 0.356,-0.367C0.352,-0.379 0.346,-0.388 0.339,-0.397C0.331,-0.405 0.322,-0.412 0.311,-0.417C0.3,-0.421 0.287,-0.424 0.273,-0.424C0.252,-0.424 0.236,-0.42 0.223,-0.411C0.21,-0.403 0.199,-0.391 0.192,-0.377C0.185,-0.363 0.18,-0.347 0.177,-0.328C0.175,-0.31 0.173,-0.29 0.173,-0.271L0.173,-0.257C0.173,-0.237 0.175,-0.217 0.177,-0.199C0.18,-0.18 0.185,-0.164 0.192,-0.15C0.199,-0.136 0.21,-0.125 0.223,-0.116C0.236,-0.108 0.253,-0.104 0.274,-0.104Z" style="fill:rgb(90,90,90);fill-rule:nonzero;"/>
                </g>
                <g transform="matrix(59.0372,0,0,64,451.138,587)">
                    <path d="M0.223,-0.658L0.223,-0.528L0.313,-0.528L0.313,-0.425L0.223,-0.425L0.223,-0.161C0.223,-0.15 0.224,-0.141 0.227,-0.134C0.229,-0.127 0.232,-0.121 0.237,-0.117C0.241,-0.113 0.247,-0.11 0.254,-0.109C0.26,-0.107 0.268,-0.106 0.277,-0.106C0.286,-0.106 0.294,-0.107 0.301,-0.107C0.308,-0.108 0.314,-0.109 0.319,-0.11L0.319,-0.003C0.307,0.001 0.294,0.004 0.281,0.006C0.267,0.009 0.251,0.01 0.233,0.01C0.21,0.01 0.189,0.007 0.171,0.001C0.152,-0.004 0.136,-0.014 0.123,-0.026C0.11,-0.038 0.1,-0.054 0.093,-0.074C0.086,-0.094 0.082,-0.118 0.082,-0.146L0.082,-0.425L0.005,-0.425L0.005,-0.528L0.082,-0.528L0.082,-0.658L0.223,-0.658Z" style="fill:rgb(90,90,90);fill-rule:nonzero;"/>
                </g>
                <g transform="matrix(59.0372,0,0,64,471.086,587)">
                    <path d="M0.35,-0.711L0.497,-0.711L0.497,-0.219C0.497,-0.183 0.491,-0.151 0.479,-0.123C0.466,-0.095 0.45,-0.071 0.428,-0.051C0.407,-0.031 0.382,-0.016 0.353,-0.006C0.324,0.005 0.292,0.01 0.258,0.01C0.223,0.01 0.191,0.005 0.162,-0.003C0.133,-0.012 0.108,-0.026 0.087,-0.044C0.066,-0.062 0.049,-0.085 0.037,-0.112C0.025,-0.14 0.02,-0.172 0.02,-0.21L0.167,-0.21C0.167,-0.191 0.169,-0.175 0.173,-0.162C0.178,-0.149 0.184,-0.138 0.192,-0.13C0.2,-0.122 0.209,-0.116 0.22,-0.113C0.232,-0.11 0.244,-0.108 0.258,-0.108C0.286,-0.108 0.309,-0.118 0.325,-0.137C0.342,-0.156 0.35,-0.183 0.35,-0.219L0.35,-0.711Z" style="fill:rgb(90,90,90);fill-rule:nonzero;"/>
                </g>
                <g transform="matrix(59.0372,0,0,64,504.063,587)">
                    <path d="M0.432,-0.187C0.432,-0.199 0.43,-0.21 0.427,-0.22C0.423,-0.23 0.416,-0.239 0.406,-0.248C0.396,-0.256 0.382,-0.264 0.364,-0.272C0.345,-0.281 0.322,-0.289 0.293,-0.298C0.261,-0.309 0.23,-0.32 0.201,-0.333C0.173,-0.347 0.147,-0.362 0.126,-0.38C0.104,-0.397 0.087,-0.418 0.074,-0.441C0.062,-0.464 0.056,-0.491 0.056,-0.522C0.056,-0.552 0.062,-0.579 0.075,-0.603C0.088,-0.628 0.106,-0.649 0.129,-0.666C0.152,-0.683 0.18,-0.697 0.212,-0.706C0.244,-0.716 0.279,-0.721 0.318,-0.721C0.357,-0.721 0.393,-0.715 0.425,-0.704C0.458,-0.693 0.485,-0.678 0.508,-0.659C0.531,-0.639 0.548,-0.616 0.561,-0.589C0.573,-0.562 0.579,-0.533 0.579,-0.501L0.433,-0.501C0.433,-0.516 0.43,-0.53 0.426,-0.542C0.421,-0.555 0.414,-0.566 0.404,-0.575C0.394,-0.584 0.382,-0.591 0.367,-0.596C0.353,-0.601 0.335,-0.604 0.315,-0.604C0.296,-0.604 0.28,-0.602 0.265,-0.598C0.251,-0.593 0.24,-0.588 0.23,-0.58C0.221,-0.573 0.214,-0.564 0.209,-0.554C0.205,-0.544 0.202,-0.533 0.202,-0.521C0.202,-0.498 0.214,-0.478 0.238,-0.463C0.262,-0.447 0.297,-0.432 0.343,-0.418C0.382,-0.406 0.416,-0.393 0.446,-0.378C0.475,-0.364 0.5,-0.347 0.519,-0.329C0.539,-0.31 0.554,-0.289 0.564,-0.266C0.574,-0.243 0.579,-0.217 0.579,-0.188C0.579,-0.156 0.573,-0.128 0.561,-0.104C0.549,-0.08 0.531,-0.059 0.509,-0.042C0.486,-0.025 0.459,-0.013 0.427,-0.004C0.396,0.005 0.36,0.01 0.321,0.01C0.298,0.01 0.274,0.008 0.251,0.004C0.228,0 0.205,-0.007 0.184,-0.015C0.163,-0.024 0.143,-0.034 0.125,-0.047C0.106,-0.06 0.09,-0.075 0.077,-0.092C0.063,-0.109 0.053,-0.129 0.045,-0.151C0.038,-0.173 0.034,-0.197 0.034,-0.224L0.181,-0.224C0.181,-0.202 0.184,-0.184 0.191,-0.169C0.198,-0.154 0.207,-0.142 0.219,-0.133C0.232,-0.123 0.246,-0.117 0.264,-0.112C0.281,-0.108 0.3,-0.106 0.321,-0.106C0.34,-0.106 0.357,-0.108 0.371,-0.112C0.385,-0.116 0.396,-0.122 0.405,-0.129C0.414,-0.136 0.421,-0.145 0.426,-0.155C0.43,-0.164 0.432,-0.175 0.432,-0.187Z" style="fill:rgb(90,90,90);fill-rule:nonzero;"/>
                </g>
                <g transform="matrix(59.0372,0,0,64,555.058,587)">
                    <path d="M0.36,0C0.354,-0.013 0.349,-0.028 0.346,-0.047C0.332,-0.031 0.314,-0.018 0.292,-0.007C0.271,0.004 0.244,0.01 0.213,0.01C0.188,0.01 0.164,0.006 0.142,-0.002C0.12,-0.01 0.101,-0.021 0.085,-0.035C0.069,-0.049 0.056,-0.065 0.047,-0.085C0.038,-0.104 0.033,-0.125 0.033,-0.148C0.033,-0.176 0.038,-0.201 0.049,-0.222C0.059,-0.244 0.074,-0.262 0.095,-0.277C0.115,-0.292 0.141,-0.303 0.171,-0.311C0.202,-0.319 0.237,-0.323 0.277,-0.323L0.34,-0.323L0.34,-0.353C0.34,-0.377 0.334,-0.397 0.322,-0.412C0.309,-0.426 0.289,-0.434 0.262,-0.434C0.238,-0.434 0.22,-0.428 0.206,-0.417C0.193,-0.405 0.186,-0.389 0.186,-0.37L0.045,-0.37C0.045,-0.392 0.05,-0.414 0.061,-0.435C0.071,-0.455 0.086,-0.473 0.106,-0.488C0.125,-0.504 0.149,-0.516 0.177,-0.525C0.204,-0.534 0.235,-0.538 0.27,-0.538C0.3,-0.538 0.328,-0.534 0.354,-0.526C0.381,-0.519 0.403,-0.507 0.422,-0.491C0.441,-0.476 0.455,-0.457 0.466,-0.433C0.477,-0.41 0.482,-0.383 0.482,-0.352L0.482,-0.128C0.482,-0.113 0.482,-0.1 0.483,-0.088C0.484,-0.076 0.486,-0.066 0.487,-0.056C0.489,-0.046 0.491,-0.038 0.494,-0.03C0.496,-0.022 0.499,-0.015 0.503,-0.008L0.503,0L0.36,0ZM0.244,-0.098C0.256,-0.098 0.267,-0.1 0.277,-0.103C0.287,-0.105 0.297,-0.109 0.305,-0.114C0.313,-0.119 0.32,-0.124 0.326,-0.13C0.332,-0.137 0.337,-0.143 0.34,-0.149L0.34,-0.24L0.282,-0.24C0.264,-0.24 0.248,-0.238 0.234,-0.234C0.22,-0.23 0.209,-0.224 0.2,-0.217C0.191,-0.21 0.185,-0.201 0.181,-0.191C0.176,-0.181 0.174,-0.17 0.174,-0.159C0.174,-0.141 0.181,-0.127 0.193,-0.115C0.205,-0.104 0.222,-0.098 0.244,-0.098Z" style="fill:rgb(90,90,90);fill-rule:nonzero;"/>
                </g>
                <g transform="matrix(59.0372,0,0,64,586.71,587)">
                    <path d="M0.184,-0.528L0.188,-0.467C0.207,-0.49 0.229,-0.508 0.254,-0.52C0.28,-0.532 0.309,-0.538 0.34,-0.538C0.365,-0.538 0.388,-0.535 0.409,-0.528C0.429,-0.521 0.447,-0.509 0.461,-0.493C0.476,-0.477 0.487,-0.456 0.495,-0.431C0.503,-0.405 0.507,-0.373 0.507,-0.336L0.507,0L0.366,0L0.366,-0.337C0.366,-0.354 0.364,-0.368 0.361,-0.379C0.357,-0.39 0.351,-0.399 0.344,-0.405C0.337,-0.412 0.328,-0.416 0.318,-0.419C0.307,-0.422 0.295,-0.423 0.282,-0.423C0.261,-0.423 0.243,-0.419 0.228,-0.41C0.213,-0.401 0.201,-0.388 0.192,-0.373L0.192,0L0.051,0L0.051,-0.528L0.184,-0.528Z" style="fill:rgb(90,90,90);fill-rule:nonzero;"/>
                </g>
                <g transform="matrix(59.0372,0,0,64,619.774,587)">
                    <path d="M0.032,-0.268C0.032,-0.308 0.037,-0.345 0.046,-0.378C0.055,-0.411 0.069,-0.44 0.086,-0.463C0.104,-0.487 0.126,-0.506 0.151,-0.519C0.177,-0.532 0.206,-0.538 0.239,-0.538C0.266,-0.538 0.29,-0.533 0.311,-0.523C0.332,-0.513 0.351,-0.499 0.367,-0.48L0.367,-0.75L0.508,-0.75L0.508,0L0.381,0L0.374,-0.056C0.357,-0.035 0.338,-0.019 0.316,-0.008C0.294,0.004 0.268,0.01 0.238,0.01C0.206,0.01 0.177,0.003 0.151,-0.01C0.126,-0.024 0.104,-0.043 0.086,-0.066C0.069,-0.09 0.055,-0.118 0.046,-0.151C0.037,-0.184 0.032,-0.219 0.032,-0.258L0.032,-0.268ZM0.173,-0.258C0.173,-0.236 0.175,-0.216 0.179,-0.198C0.182,-0.179 0.188,-0.163 0.196,-0.149C0.204,-0.135 0.214,-0.124 0.227,-0.116C0.24,-0.108 0.256,-0.104 0.274,-0.104C0.297,-0.104 0.316,-0.109 0.331,-0.119C0.346,-0.129 0.358,-0.142 0.367,-0.16L0.367,-0.368C0.358,-0.386 0.346,-0.399 0.331,-0.409C0.316,-0.419 0.298,-0.423 0.275,-0.423C0.257,-0.423 0.241,-0.419 0.228,-0.411C0.215,-0.403 0.205,-0.392 0.197,-0.378C0.189,-0.364 0.183,-0.348 0.179,-0.329C0.175,-0.31 0.173,-0.29 0.173,-0.268L0.173,-0.258Z" style="fill:rgb(90,90,90);fill-rule:nonzero;"/>
                </g>
                <g transform="matrix(59.0372,0,0,64,667.742,587)">
                    <path d="M0.617,-0.205L0.713,-0.711L0.859,-0.711L0.701,0L0.554,0L0.438,-0.476L0.322,0L0.175,0L0.017,-0.711L0.163,-0.711L0.259,-0.206L0.376,-0.711L0.5,-0.711L0.617,-0.205Z" style="fill:rgb(90,90,90);fill-rule:nonzero;"/>
                </g>
                <g transform="matrix(59.0372,0,0,64,718.477,587)">
                    <path d="M0.297,0.01C0.256,0.01 0.22,0.003 0.187,-0.01C0.155,-0.024 0.127,-0.042 0.105,-0.065C0.082,-0.088 0.065,-0.115 0.053,-0.146C0.041,-0.177 0.035,-0.211 0.035,-0.246L0.035,-0.265C0.035,-0.305 0.041,-0.342 0.052,-0.375C0.064,-0.409 0.08,-0.437 0.102,-0.461C0.123,-0.486 0.149,-0.504 0.179,-0.518C0.21,-0.531 0.244,-0.538 0.282,-0.538C0.32,-0.538 0.353,-0.532 0.382,-0.519C0.411,-0.507 0.436,-0.489 0.455,-0.467C0.475,-0.444 0.49,-0.417 0.5,-0.385C0.51,-0.353 0.515,-0.317 0.515,-0.278L0.515,-0.218L0.178,-0.218C0.181,-0.201 0.185,-0.185 0.192,-0.171C0.199,-0.157 0.208,-0.145 0.219,-0.135C0.23,-0.126 0.243,-0.118 0.257,-0.112C0.272,-0.107 0.288,-0.104 0.307,-0.104C0.332,-0.104 0.356,-0.109 0.378,-0.118C0.4,-0.128 0.418,-0.143 0.434,-0.163L0.503,-0.085C0.495,-0.073 0.484,-0.062 0.472,-0.05C0.459,-0.039 0.444,-0.029 0.427,-0.02C0.41,-0.011 0.39,-0.004 0.368,0.002C0.347,0.007 0.323,0.01 0.297,0.01ZM0.281,-0.424C0.266,-0.424 0.253,-0.421 0.241,-0.416C0.229,-0.41 0.219,-0.403 0.211,-0.393C0.203,-0.384 0.196,-0.372 0.191,-0.359C0.186,-0.346 0.182,-0.331 0.18,-0.314L0.376,-0.314L0.376,-0.326C0.376,-0.34 0.374,-0.353 0.37,-0.365C0.366,-0.377 0.36,-0.387 0.353,-0.396C0.345,-0.405 0.335,-0.412 0.323,-0.417C0.312,-0.421 0.298,-0.424 0.281,-0.424Z" style="fill:rgb(90,90,90);fill-rule:nonzero;"/>
                </g>
                <g transform="matrix(59.0372,0,0,64,750.388,587)">
                    <path d="M0.53,-0.259C0.53,-0.22 0.526,-0.183 0.518,-0.15C0.509,-0.118 0.496,-0.089 0.479,-0.065C0.462,-0.042 0.441,-0.023 0.415,-0.01C0.389,0.003 0.359,0.01 0.325,0.01C0.294,0.01 0.268,0.004 0.245,-0.008C0.223,-0.019 0.204,-0.035 0.188,-0.056L0.181,0L0.054,0L0.054,-0.75L0.195,-0.75L0.195,-0.481C0.211,-0.499 0.229,-0.513 0.25,-0.523C0.271,-0.533 0.296,-0.538 0.324,-0.538C0.358,-0.538 0.388,-0.531 0.414,-0.518C0.44,-0.505 0.462,-0.486 0.479,-0.462C0.496,-0.439 0.509,-0.41 0.518,-0.377C0.526,-0.345 0.53,-0.309 0.53,-0.27L0.53,-0.259ZM0.389,-0.27C0.389,-0.29 0.388,-0.31 0.385,-0.329C0.382,-0.348 0.377,-0.364 0.369,-0.378C0.361,-0.392 0.351,-0.403 0.338,-0.411C0.325,-0.419 0.308,-0.423 0.288,-0.423C0.264,-0.423 0.245,-0.419 0.23,-0.409C0.215,-0.399 0.203,-0.386 0.195,-0.368L0.195,-0.16C0.203,-0.142 0.215,-0.128 0.23,-0.119C0.245,-0.109 0.265,-0.104 0.289,-0.104C0.309,-0.104 0.325,-0.108 0.338,-0.116C0.351,-0.124 0.361,-0.134 0.369,-0.148C0.377,-0.162 0.382,-0.178 0.385,-0.197C0.388,-0.216 0.389,-0.237 0.389,-0.259L0.389,-0.27Z" style="fill:rgb(90,90,90);fill-rule:nonzero;"/>
                </g>
                <g transform="matrix(59.0372,0,0,64,783.625,587)">
                    <path d="M0.34,-0.146C0.34,-0.153 0.339,-0.16 0.336,-0.167C0.333,-0.173 0.327,-0.178 0.319,-0.184C0.311,-0.189 0.3,-0.194 0.286,-0.199C0.272,-0.204 0.254,-0.209 0.232,-0.213C0.205,-0.219 0.18,-0.227 0.157,-0.235C0.134,-0.244 0.114,-0.255 0.097,-0.268C0.081,-0.281 0.068,-0.296 0.058,-0.313C0.049,-0.331 0.044,-0.351 0.044,-0.374C0.044,-0.396 0.049,-0.417 0.058,-0.437C0.068,-0.456 0.082,-0.474 0.1,-0.489C0.118,-0.504 0.14,-0.516 0.166,-0.525C0.192,-0.534 0.222,-0.538 0.255,-0.538C0.289,-0.538 0.32,-0.534 0.347,-0.525C0.375,-0.517 0.398,-0.505 0.417,-0.49C0.436,-0.475 0.45,-0.457 0.461,-0.436C0.471,-0.415 0.476,-0.392 0.476,-0.368L0.335,-0.368C0.335,-0.388 0.328,-0.405 0.315,-0.418C0.302,-0.431 0.282,-0.438 0.254,-0.438C0.231,-0.438 0.212,-0.432 0.199,-0.421C0.186,-0.411 0.18,-0.397 0.18,-0.38C0.18,-0.373 0.181,-0.366 0.185,-0.36C0.188,-0.354 0.194,-0.348 0.201,-0.343C0.209,-0.338 0.219,-0.333 0.232,-0.329C0.244,-0.325 0.26,-0.321 0.278,-0.317C0.306,-0.312 0.333,-0.305 0.357,-0.297C0.382,-0.289 0.403,-0.278 0.421,-0.265C0.438,-0.253 0.452,-0.237 0.462,-0.219C0.472,-0.2 0.478,-0.178 0.478,-0.152C0.478,-0.128 0.472,-0.107 0.462,-0.087C0.451,-0.067 0.437,-0.05 0.417,-0.036C0.398,-0.022 0.375,-0.011 0.347,-0.002C0.32,0.006 0.289,0.01 0.255,0.01C0.218,0.01 0.186,0.005 0.157,-0.006C0.129,-0.016 0.105,-0.03 0.086,-0.047C0.066,-0.064 0.052,-0.083 0.042,-0.104C0.032,-0.125 0.027,-0.146 0.027,-0.168L0.161,-0.168C0.162,-0.154 0.165,-0.142 0.17,-0.133C0.176,-0.123 0.183,-0.115 0.191,-0.108C0.2,-0.102 0.21,-0.098 0.222,-0.095C0.233,-0.092 0.246,-0.09 0.258,-0.09C0.285,-0.09 0.306,-0.095 0.32,-0.106C0.333,-0.116 0.34,-0.129 0.34,-0.146Z" style="fill:rgb(90,90,90);fill-rule:nonzero;"/>
                </g>
                <g transform="matrix(59.0372,0,0,64,813.98,587)">
                    <path d="M0.203,0L0.062,0L0.062,-0.528L0.203,-0.528L0.203,0ZM0.053,-0.665C0.053,-0.686 0.06,-0.704 0.074,-0.717C0.089,-0.731 0.108,-0.738 0.132,-0.738C0.144,-0.738 0.155,-0.736 0.165,-0.732C0.175,-0.729 0.183,-0.724 0.19,-0.717C0.197,-0.711 0.202,-0.703 0.206,-0.694C0.21,-0.685 0.211,-0.675 0.211,-0.665C0.211,-0.654 0.21,-0.644 0.206,-0.635C0.202,-0.627 0.197,-0.619 0.19,-0.612C0.183,-0.606 0.175,-0.601 0.165,-0.597C0.155,-0.594 0.144,-0.592 0.132,-0.592C0.12,-0.592 0.109,-0.594 0.1,-0.597C0.09,-0.601 0.082,-0.606 0.075,-0.612C0.068,-0.619 0.063,-0.627 0.059,-0.635C0.055,-0.644 0.053,-0.654 0.053,-0.665Z" style="fill:rgb(90,90,90);fill-rule:nonzero;"/>
                </g>
                <g transform="matrix(59.0372,0,0,64,829.633,587)">
                    <path d="M0.223,-0.658L0.223,-0.528L0.313,-0.528L0.313,-0.425L0.223,-0.425L0.223,-0.161C0.223,-0.15 0.224,-0.141 0.227,-0.134C0.229,-0.127 0.232,-0.121 0.237,-0.117C0.241,-0.113 0.247,-0.11 0.254,-0.109C0.26,-0.107 0.268,-0.106 0.277,-0.106C0.286,-0.106 0.294,-0.107 0.301,-0.107C0.308,-0.108 0.314,-0.109 0.319,-0.11L0.319,-0.003C0.307,0.001 0.294,0.004 0.281,0.006C0.267,0.009 0.251,0.01 0.233,0.01C0.21,0.01 0.189,0.007 0.171,0.001C0.152,-0.004 0.136,-0.014 0.123,-0.026C0.11,-0.038 0.1,-0.054 0.093,-0.074C0.086,-0.094 0.082,-0.118 0.082,-0.146L0.082,-0.425L0.005,-0.425L0.005,-0.528L0.082,-0.528L0.082,-0.658L0.223,-0.658Z" style="fill:rgb(90,90,90);fill-rule:nonzero;"/>
                </g>
                <g transform="matrix(59.0372,0,0,64,849.581,587)">
                    <path d="M0.297,0.01C0.256,0.01 0.22,0.003 0.187,-0.01C0.155,-0.024 0.127,-0.042 0.105,-0.065C0.082,-0.088 0.065,-0.115 0.053,-0.146C0.041,-0.177 0.035,-0.211 0.035,-0.246L0.035,-0.265C0.035,-0.305 0.041,-0.342 0.052,-0.375C0.064,-0.409 0.08,-0.437 0.102,-0.461C0.123,-0.486 0.149,-0.504 0.179,-0.518C0.21,-0.531 0.244,-0.538 0.282,-0.538C0.32,-0.538 0.353,-0.532 0.382,-0.519C0.411,-0.507 0.436,-0.489 0.455,-0.467C0.475,-0.444 0.49,-0.417 0.5,-0.385C0.51,-0.353 0.515,-0.317 0.515,-0.278L0.515,-0.218L0.178,-0.218C0.181,-0.201 0.185,-0.185 0.192,-0.171C0.199,-0.157 0.208,-0.145 0.219,-0.135C0.23,-0.126 0.243,-0.118 0.257,-0.112C0.272,-0.107 0.288,-0.104 0.307,-0.104C0.332,-0.104 0.356,-0.109 0.378,-0.118C0.4,-0.128 0.418,-0.143 0.434,-0.163L0.503,-0.085C0.495,-0.073 0.484,-0.062 0.472,-0.05C0.459,-0.039 0.444,-0.029 0.427,-0.02C0.41,-0.011 0.39,-0.004 0.368,0.002C0.347,0.007 0.323,0.01 0.297,0.01ZM0.281,-0.424C0.266,-0.424 0.253,-0.421 0.241,-0.416C0.229,-0.41 0.219,-0.403 0.211,-0.393C0.203,-0.384 0.196,-0.372 0.191,-0.359C0.186,-0.346 0.182,-0.331 0.18,-0.314L0.376,-0.314L0.376,-0.326C0.376,-0.34 0.374,-0.353 0.37,-0.365C0.366,-0.377 0.36,-0.387 0.353,-0.396C0.345,-0.405 0.335,-0.412 0.323,-0.417C0.312,-0.421 0.298,-0.424 0.281,-0.424Z" style="fill:rgb(90,90,90);fill-rule:nonzero;"/>
                </g>
                <g transform="matrix(59.0372,0,0,64,896.194,587)">
                    <path d="M0.063,0L0.063,-0.711L0.313,-0.711C0.354,-0.711 0.391,-0.707 0.423,-0.699C0.456,-0.691 0.483,-0.679 0.506,-0.663C0.529,-0.647 0.546,-0.627 0.558,-0.603C0.57,-0.578 0.576,-0.549 0.576,-0.516C0.576,-0.5 0.574,-0.484 0.57,-0.469C0.566,-0.454 0.559,-0.44 0.551,-0.427C0.543,-0.414 0.532,-0.402 0.52,-0.392C0.507,-0.381 0.492,-0.373 0.474,-0.366C0.495,-0.361 0.513,-0.353 0.528,-0.342C0.542,-0.331 0.555,-0.319 0.564,-0.305C0.574,-0.291 0.581,-0.276 0.585,-0.26C0.59,-0.243 0.592,-0.226 0.592,-0.209C0.592,-0.14 0.57,-0.088 0.525,-0.053C0.481,-0.018 0.417,0 0.335,0L0.063,0ZM0.21,-0.31L0.21,-0.118L0.335,-0.118C0.354,-0.118 0.371,-0.12 0.384,-0.125C0.398,-0.129 0.409,-0.136 0.418,-0.144C0.428,-0.153 0.434,-0.162 0.439,-0.174C0.443,-0.185 0.445,-0.197 0.445,-0.21C0.445,-0.226 0.443,-0.24 0.439,-0.252C0.436,-0.264 0.429,-0.274 0.421,-0.283C0.413,-0.292 0.402,-0.298 0.389,-0.303C0.375,-0.307 0.359,-0.31 0.341,-0.31L0.21,-0.31ZM0.21,-0.413L0.318,-0.413C0.356,-0.414 0.384,-0.422 0.402,-0.437C0.42,-0.452 0.429,-0.473 0.429,-0.501C0.429,-0.534 0.42,-0.557 0.401,-0.571C0.382,-0.585 0.353,-0.592 0.313,-0.592L0.21,-0.592L0.21,-0.413Z" style="fill:rgb(90,90,90);fill-rule:nonzero;"/>
                </g>
                <g transform="matrix(59.0372,0,0,64,933.87,587)">
                    <path d="M0.36,0C0.354,-0.013 0.349,-0.028 0.346,-0.047C0.332,-0.031 0.314,-0.018 0.292,-0.007C0.271,0.004 0.244,0.01 0.213,0.01C0.188,0.01 0.164,0.006 0.142,-0.002C0.12,-0.01 0.101,-0.021 0.085,-0.035C0.069,-0.049 0.056,-0.065 0.047,-0.085C0.038,-0.104 0.033,-0.125 0.033,-0.148C0.033,-0.176 0.038,-0.201 0.049,-0.222C0.059,-0.244 0.074,-0.262 0.095,-0.277C0.115,-0.292 0.141,-0.303 0.171,-0.311C0.202,-0.319 0.237,-0.323 0.277,-0.323L0.34,-0.323L0.34,-0.353C0.34,-0.377 0.334,-0.397 0.322,-0.412C0.309,-0.426 0.289,-0.434 0.262,-0.434C0.238,-0.434 0.22,-0.428 0.206,-0.417C0.193,-0.405 0.186,-0.389 0.186,-0.37L0.045,-0.37C0.045,-0.392 0.05,-0.414 0.061,-0.435C0.071,-0.455 0.086,-0.473 0.106,-0.488C0.125,-0.504 0.149,-0.516 0.177,-0.525C0.204,-0.534 0.235,-0.538 0.27,-0.538C0.3,-0.538 0.328,-0.534 0.354,-0.526C0.381,-0.519 0.403,-0.507 0.422,-0.491C0.441,-0.476 0.455,-0.457 0.466,-0.433C0.477,-0.41 0.482,-0.383 0.482,-0.352L0.482,-0.128C0.482,-0.113 0.482,-0.1 0.483,-0.088C0.484,-0.076 0.486,-0.066 0.487,-0.056C0.489,-0.046 0.491,-0.038 0.494,-0.03C0.496,-0.022 0.499,-0.015 0.503,-0.008L0.503,0L0.36,0ZM0.244,-0.098C0.256,-0.098 0.267,-0.1 0.277,-0.103C0.287,-0.105 0.297,-0.109 0.305,-0.114C0.313,-0.119 0.32,-0.124 0.326,-0.13C0.332,-0.137 0.337,-0.143 0.34,-0.149L0.34,-0.24L0.282,-0.24C0.264,-0.24 0.248,-0.238 0.234,-0.234C0.22,-0.23 0.209,-0.224 0.2,-0.217C0.191,-0.21 0.185,-0.201 0.181,-0.191C0.176,-0.181 0.174,-0.17 0.174,-0.159C0.174,-0.141 0.181,-0.127 0.193,-0.115C0.205,-0.104 0.222,-0.098 0.244,-0.098Z" style="fill:rgb(90,90,90);fill-rule:nonzero;"/>
                </g>
                <g transform="matrix(59.0372,0,0,64,965.522,587)">
                    <path d="M0.274,-0.104C0.287,-0.104 0.299,-0.106 0.31,-0.11C0.32,-0.113 0.33,-0.119 0.337,-0.125C0.345,-0.132 0.351,-0.141 0.356,-0.15C0.36,-0.16 0.362,-0.171 0.363,-0.183L0.495,-0.183C0.495,-0.155 0.489,-0.129 0.478,-0.105C0.466,-0.082 0.451,-0.061 0.431,-0.044C0.412,-0.027 0.389,-0.014 0.362,-0.004C0.336,0.005 0.307,0.01 0.276,0.01C0.235,0.01 0.2,0.003 0.169,-0.011C0.138,-0.025 0.113,-0.044 0.093,-0.068C0.073,-0.092 0.057,-0.12 0.047,-0.152C0.037,-0.184 0.032,-0.219 0.032,-0.257L0.032,-0.271C0.032,-0.308 0.037,-0.343 0.047,-0.375C0.057,-0.408 0.073,-0.436 0.093,-0.46C0.113,-0.485 0.138,-0.503 0.169,-0.517C0.199,-0.531 0.235,-0.538 0.275,-0.538C0.308,-0.538 0.338,-0.533 0.365,-0.524C0.391,-0.514 0.414,-0.5 0.434,-0.482C0.453,-0.465 0.468,-0.443 0.479,-0.417C0.489,-0.392 0.495,-0.363 0.495,-0.332L0.363,-0.332C0.362,-0.344 0.36,-0.356 0.356,-0.367C0.352,-0.379 0.346,-0.388 0.339,-0.397C0.331,-0.405 0.322,-0.412 0.311,-0.417C0.3,-0.421 0.287,-0.424 0.273,-0.424C0.252,-0.424 0.236,-0.42 0.223,-0.411C0.21,-0.403 0.199,-0.391 0.192,-0.377C0.185,-0.363 0.18,-0.347 0.177,-0.328C0.175,-0.31 0.173,-0.29 0.173,-0.271L0.173,-0.257C0.173,-0.237 0.175,-0.217 0.177,-0.199C0.18,-0.18 0.185,-0.164 0.192,-0.15C0.199,-0.136 0.21,-0.125 0.223,-0.116C0.236,-0.108 0.253,-0.104 0.274,-0.104Z" style="fill:rgb(90,90,90);fill-rule:nonzero;"/>
                </g>
                <g transform="matrix(59.0372,0,0,64,996.309,587)">
                    <path d="M0.246,-0.212L0.195,-0.161L0.195,0L0.054,0L0.054,-0.75L0.195,-0.75L0.195,-0.334L0.223,-0.37L0.358,-0.528L0.527,-0.528L0.336,-0.308L0.544,0L0.382,0L0.246,-0.212Z" style="fill:rgb(90,90,90);fill-rule:nonzero;"/>
                </g>
                <g transform="matrix(59.0372,0,0,64,1027.85,587)">
                    <path d="M0.032,-0.269C0.032,-0.307 0.038,-0.343 0.049,-0.376C0.06,-0.409 0.076,-0.437 0.097,-0.461C0.118,-0.485 0.144,-0.504 0.176,-0.518C0.207,-0.531 0.242,-0.538 0.282,-0.538C0.322,-0.538 0.357,-0.531 0.389,-0.518C0.42,-0.504 0.446,-0.485 0.468,-0.461C0.489,-0.437 0.505,-0.409 0.516,-0.376C0.527,-0.343 0.533,-0.307 0.533,-0.269L0.533,-0.259C0.533,-0.22 0.527,-0.184 0.516,-0.152C0.505,-0.119 0.489,-0.091 0.468,-0.067C0.446,-0.043 0.42,-0.024 0.389,-0.01C0.358,0.003 0.323,0.01 0.283,0.01C0.243,0.01 0.207,0.003 0.176,-0.01C0.145,-0.024 0.119,-0.043 0.097,-0.067C0.076,-0.091 0.06,-0.119 0.049,-0.152C0.038,-0.184 0.032,-0.22 0.032,-0.259L0.032,-0.269ZM0.173,-0.259C0.173,-0.237 0.175,-0.217 0.179,-0.198C0.183,-0.179 0.189,-0.163 0.198,-0.149C0.207,-0.135 0.218,-0.124 0.232,-0.116C0.246,-0.108 0.263,-0.104 0.283,-0.104C0.302,-0.104 0.319,-0.108 0.333,-0.116C0.347,-0.124 0.358,-0.135 0.367,-0.149C0.375,-0.163 0.382,-0.179 0.386,-0.198C0.39,-0.217 0.392,-0.237 0.392,-0.259L0.392,-0.269C0.392,-0.29 0.39,-0.31 0.386,-0.328C0.382,-0.347 0.375,-0.364 0.367,-0.378C0.358,-0.392 0.347,-0.403 0.333,-0.411C0.319,-0.42 0.302,-0.424 0.282,-0.424C0.262,-0.424 0.246,-0.42 0.232,-0.411C0.218,-0.403 0.207,-0.392 0.198,-0.378C0.189,-0.364 0.183,-0.347 0.179,-0.328C0.175,-0.31 0.173,-0.29 0.173,-0.269L0.173,-0.259Z" style="fill:rgb(90,90,90);fill-rule:nonzero;"/>
                </g>
                <g transform="matrix(59.0372,0,0,64,1061.23,587)">
                    <path d="M0.093,0L0.093,-0.425L0.014,-0.425L0.014,-0.528L0.093,-0.528L0.093,-0.574C0.093,-0.604 0.097,-0.631 0.106,-0.654C0.115,-0.677 0.128,-0.696 0.145,-0.712C0.162,-0.728 0.182,-0.74 0.206,-0.748C0.23,-0.756 0.257,-0.76 0.287,-0.76C0.299,-0.76 0.312,-0.759 0.323,-0.757C0.335,-0.755 0.347,-0.753 0.358,-0.75L0.357,-0.641C0.345,-0.644 0.331,-0.646 0.314,-0.646C0.289,-0.646 0.269,-0.639 0.255,-0.627C0.241,-0.615 0.234,-0.597 0.234,-0.574L0.234,-0.528L0.339,-0.528L0.339,-0.425L0.234,-0.425L0.234,0L0.093,0Z" style="fill:rgb(90,90,90);fill-rule:nonzero;"/>
                </g>
                <g transform="matrix(59.0372,0,0,64,1082.39,587)">
                    <path d="M0.088,0L0.088,-0.425L0.01,-0.425L0.01,-0.528L0.088,-0.528L0.088,-0.55C0.088,-0.584 0.094,-0.614 0.104,-0.64C0.114,-0.667 0.13,-0.689 0.149,-0.706C0.169,-0.724 0.194,-0.737 0.222,-0.747C0.251,-0.756 0.283,-0.76 0.32,-0.76C0.347,-0.76 0.374,-0.758 0.4,-0.752C0.426,-0.747 0.452,-0.74 0.48,-0.731L0.459,-0.615C0.451,-0.617 0.442,-0.62 0.432,-0.623C0.423,-0.625 0.413,-0.628 0.402,-0.63C0.392,-0.632 0.38,-0.634 0.368,-0.635C0.356,-0.637 0.343,-0.637 0.329,-0.637C0.296,-0.637 0.271,-0.63 0.255,-0.615C0.238,-0.601 0.23,-0.579 0.23,-0.55L0.23,-0.528L0.334,-0.528L0.334,-0.425L0.23,-0.425L0.23,0L0.088,0ZM0.546,0L0.404,0L0.404,-0.528L0.546,-0.528L0.546,0Z" style="fill:rgb(90,90,90);fill-rule:nonzero;"/>
                </g>
                <g transform="matrix(59.0372,0,0,64,1118.3,587)">
                    <path d="M0.274,-0.104C0.287,-0.104 0.299,-0.106 0.31,-0.11C0.32,-0.113 0.33,-0.119 0.337,-0.125C0.345,-0.132 0.351,-0.141 0.356,-0.15C0.36,-0.16 0.362,-0.171 0.363,-0.183L0.495,-0.183C0.495,-0.155 0.489,-0.129 0.478,-0.105C0.466,-0.082 0.451,-0.061 0.431,-0.044C0.412,-0.027 0.389,-0.014 0.362,-0.004C0.336,0.005 0.307,0.01 0.276,0.01C0.235,0.01 0.2,0.003 0.169,-0.011C0.138,-0.025 0.113,-0.044 0.093,-0.068C0.073,-0.092 0.057,-0.12 0.047,-0.152C0.037,-0.184 0.032,-0.219 0.032,-0.257L0.032,-0.271C0.032,-0.308 0.037,-0.343 0.047,-0.375C0.057,-0.408 0.073,-0.436 0.093,-0.46C0.113,-0.485 0.138,-0.503 0.169,-0.517C0.199,-0.531 0.235,-0.538 0.275,-0.538C0.308,-0.538 0.338,-0.533 0.365,-0.524C0.391,-0.514 0.414,-0.5 0.434,-0.482C0.453,-0.465 0.468,-0.443 0.479,-0.417C0.489,-0.392 0.495,-0.363 0.495,-0.332L0.363,-0.332C0.362,-0.344 0.36,-0.356 0.356,-0.367C0.352,-0.379 0.346,-0.388 0.339,-0.397C0.331,-0.405 0.322,-0.412 0.311,-0.417C0.3,-0.421 0.287,-0.424 0.273,-0.424C0.252,-0.424 0.236,-0.42 0.223,-0.411C0.21,-0.403 0.199,-0.391 0.192,-0.377C0.185,-0.363 0.18,-0.347 0.177,-0.328C0.175,-0.31 0.173,-0.29 0.173,-0.271L0.173,-0.257C0.173,-0.237 0.175,-0.217 0.177,-0.199C0.18,-0.18 0.185,-0.164 0.192,-0.15C0.199,-0.136 0.21,-0.125 0.223,-0.116C0.236,-0.108 0.253,-0.104 0.274,-0.104Z" style="fill:rgb(90,90,90);fill-rule:nonzero;"/>
                </g>
                <g transform="matrix(59.0372,0,0,64,1149.09,587)">
                    <path d="M0.297,0.01C0.256,0.01 0.22,0.003 0.187,-0.01C0.155,-0.024 0.127,-0.042 0.105,-0.065C0.082,-0.088 0.065,-0.115 0.053,-0.146C0.041,-0.177 0.035,-0.211 0.035,-0.246L0.035,-0.265C0.035,-0.305 0.041,-0.342 0.052,-0.375C0.064,-0.409 0.08,-0.437 0.102,-0.461C0.123,-0.486 0.149,-0.504 0.179,-0.518C0.21,-0.531 0.244,-0.538 0.282,-0.538C0.32,-0.538 0.353,-0.532 0.382,-0.519C0.411,-0.507 0.436,-0.489 0.455,-0.467C0.475,-0.444 0.49,-0.417 0.5,-0.385C0.51,-0.353 0.515,-0.317 0.515,-0.278L0.515,-0.218L0.178,-0.218C0.181,-0.201 0.185,-0.185 0.192,-0.171C0.199,-0.157 0.208,-0.145 0.219,-0.135C0.23,-0.126 0.243,-0.118 0.257,-0.112C0.272,-0.107 0.288,-0.104 0.307,-0.104C0.332,-0.104 0.356,-0.109 0.378,-0.118C0.4,-0.128 0.418,-0.143 0.434,-0.163L0.503,-0.085C0.495,-0.073 0.484,-0.062 0.472,-0.05C0.459,-0.039 0.444,-0.029 0.427,-0.02C0.41,-0.011 0.39,-0.004 0.368,0.002C0.347,0.007 0.323,0.01 0.297,0.01ZM0.281,-0.424C0.266,-0.424 0.253,-0.421 0.241,-0.416C0.229,-0.41 0.219,-0.403 0.211,-0.393C0.203,-0.384 0.196,-0.372 0.191,-0.359C0.186,-0.346 0.182,-0.331 0.18,-0.314L0.376,-0.314L0.376,-0.326C0.376,-0.34 0.374,-0.353 0.37,-0.365C0.366,-0.377 0.36,-0.387 0.353,-0.396C0.345,-0.405 0.335,-0.412 0.323,-0.417C0.312,-0.421 0.298,-0.424 0.281,-0.424Z" style="fill:rgb(90,90,90);fill-rule:nonzero;"/>
                </g>
            </g>
        </g>
    </g>
</svg>
